<svg width="96" height="96" viewBox="0 0 96 96" fill="" xmlns="http://www.w3.org/2000/svg">
<path d="M47.96 8C25.88 8 8 25.88 8 48C8 70.12 25.88 88 47.96 88C70.04 88 88 70.12 88 48C88 25.88 70.08 8 47.96 8ZM48 80C30.32 80 16 65.68 16 48C16 30.32 30.32 16 48 16C65.68 16 80 30.32 80 48C80 65.68 65.68 80 48 80ZM52 39.76L56.24 44L60.48 39.76L64.72 44L68.96 39.76L60.48 31.28L52 39.76ZM35.52 39.76L39.76 44L44 39.76L35.52 31.28L27.04 39.76L31.28 44L35.52 39.76ZM48 70C57.32 70 65.24 64.16 68.44 56H27.56C30.76 64.16 38.68 70 48 70Z" fill="#FFE623"/>
</svg>
