<svg width="193" height="193" viewBox="0 0 193 193" fill="none" xmlns="http://www.w3.org/2000/svg">
<path d="M193 0H0V193H193V0Z" fill="white"/>
<path d="M188.09 4.85156H98.9258V94.1268H188.09V4.85156Z" fill="#FFE623"/>
<path d="M94.1273 4.85156H4.85205V94.1268H94.1273V4.85156Z" fill="#FFE623"/>
<path d="M188.09 98.9209H98.9258V188.196H188.09V98.9209Z" fill="#FFE623"/>
<path d="M94.1273 98.9209H4.85205V188.196H94.1273V98.9209Z" fill="#FFE623"/>
<path d="M180.401 96.5069C180.401 142.848 142.795 180.453 96.4542 180.453C50.1134 180.453 12.5078 142.848 12.5078 96.5069C12.5078 50.1661 50.1182 12.5605 96.4542 12.5605C142.79 12.5605 180.401 50.1709 180.401 96.5069Z" fill="white"/>
<path d="M55.0617 58.7908L53.2212 60.8096L51.2024 64.2883L50.1809 67.0105L49.2173 72.5659L49.9207 78.0633C49.9207 78.0633 52.6093 82.6791 52.8694 83.0308C53.1344 83.3826 59.3305 86.1578 59.3305 86.1578L67.5117 86.2445L74.0596 83.6427L78.0635 79.9906L81.8939 72.5659L82.8575 65.6952L81.4554 61.0746L78.4152 56.5456L74.4691 53.3849L71.3422 52.8934L66.7264 52.6284L63.1658 53.2981L60.6218 53.9968L58.815 54.9652L57.4997 55.6687L56.536 56.1071L54.9894 56.984L54.8111 58.0055L55.0617 58.7908Z" fill="#FFCB00"/>
<path d="M67.9067 50.2725C78.6511 50.2725 85.5796 57.0708 85.5796 67.2564C85.5796 78.9163 72.4502 87.4829 63.1319 87.4829C54.1027 87.7045 46.2251 80.9013 46.2251 71.9685C46.2251 68.5091 47.7284 64.2402 50.1519 60.8916C50.6674 60.1737 52.9705 56.7432 54.4015 56.7432H56.2757C56.6419 56.7432 57.0707 57.1961 57.5429 57.5575C57.5429 57.5575 57.3743 57.6057 57.249 57.6924C57.5043 57.7839 57.9332 57.7791 58.4246 58.0056C54.7436 58.603 50.6337 66.3072 50.6337 69.4872V71.9492C50.6337 77.466 55.447 83.6621 62.1008 83.6621C71.2168 83.6621 81.2144 79.6438 81.2144 65.941C81.2144 60.0581 77.8802 53.3994 70.5374 53.067C68.8077 52.7972 65.4976 53.0236 65.1315 53.0718C63.1657 53.3127 55.0905 56.1554 54.3196 56.4204C54.4786 56.1795 54.6231 56.1795 54.7484 56.0976C54.7484 56.0976 54.8977 56.0109 54.5267 56.0109C54.1606 56.0109 53.3848 56.5939 52.7007 56.8588C54.4111 55.6206 56.295 54.2763 58.2752 53.2934C58.2752 53.2934 58.4246 53.2212 58.0536 53.2212C57.0081 53.2212 52.0165 55.8615 51.525 55.982C54.7725 52.4262 63.5704 50.2725 67.9067 50.2725Z" fill="#F49A00"/>
<path d="M102.525 32.4644L102.496 32.3921H91.6701L69.2754 84.5821L69.2031 84.7508H83.4985L85.9606 78.7474H106.067L114.768 99.2533L114.802 99.3256H131.863L102.525 32.4644ZM102.761 70.73H89.1117L95.9004 53.9581L102.761 70.73Z" fill="#D40C2F"/>
<path d="M75.3125 82.1685C89.4441 82.1685 105.898 96.3433 116.628 96.6035C120.733 96.7047 123.335 96.671 123.335 96.671C137.216 96.6083 151.694 87.2612 156.267 87.4298C157.327 87.9984 158.006 88.3838 158.006 89.8822C158.006 94.7389 142.583 100.116 139.712 101.084C138.03 101.682 128.5 104.144 125.556 104.356C122.193 104.703 118.767 104.635 115.939 104.467C104.703 103.792 86.2834 89.8582 75.857 89.8582C75.857 89.8582 72.6529 89.7473 70.8413 89.8582C70.5136 89.8774 66.794 89.9593 64.014 90.393C62.1735 90.6821 59.1477 91.2458 57.3601 91.8288C56.0592 92.1757 54.0983 93.0477 51.9253 94.1752C49.9258 95.2207 45.9701 97.8755 43.0455 100.318C42.2505 100.983 41.0508 101.234 40.0486 101.234C38.4875 101.234 37.5865 99.981 36.6807 98.9066C36.6807 98.9066 36.0784 97.5045 36.7771 95.9145C42.9395 87.7286 60.8003 82.1733 70.4317 82.1733H75.3125V82.1685Z" fill="#47AB32"/>
<path d="M58.897 143.71C58.8729 143.71 58.6417 143.71 58.2418 143.73C57.8419 143.749 57.4805 143.749 57.1673 143.749C56.8927 143.749 56.5554 143.749 56.1989 143.73C55.8424 143.71 55.6496 143.71 55.6063 143.71C55.5003 143.71 55.4617 143.667 55.481 143.561L56.9361 138.849C56.9987 138.637 57.0613 138.343 57.1288 137.986C57.1914 137.712 57.2107 137.562 57.2348 137.562C57.2589 137.562 57.2781 137.688 57.3167 137.919C57.3841 138.237 57.4468 138.531 57.5287 138.83L58.9838 143.585C59.003 143.667 58.9838 143.71 58.897 143.71ZM60.6075 149.242C60.6316 149.348 60.6749 149.391 60.7135 149.391C60.7327 149.391 60.9881 149.391 61.4699 149.367C61.9565 149.348 62.2938 149.348 62.4432 149.348C62.6311 149.348 63.0117 149.348 63.6284 149.367C64.2355 149.391 64.5535 149.391 64.5342 149.391C64.5969 149.391 64.5969 149.348 64.5776 149.285C63.5417 146.645 62.6166 144.129 61.7686 141.701C60.7135 138.68 59.9522 136.44 59.4848 134.985C59.4656 134.922 59.4222 134.898 59.3596 134.898C59.3403 134.898 59.0416 134.898 58.4923 134.917C57.9671 134.936 57.6058 134.936 57.4612 134.936C57.3119 134.936 56.912 134.936 56.3001 134.917C55.6882 134.898 55.3943 134.898 55.3702 134.898C55.3075 134.898 55.269 134.941 55.2449 135.023C54.5077 137.389 53.7706 139.649 53.0286 141.802C52.1228 144.443 51.217 146.934 50.3449 149.237C50.3015 149.343 50.3015 149.386 50.3642 149.386C50.4075 149.386 50.6822 149.386 51.1688 149.362C51.6554 149.343 51.9734 149.343 52.118 149.343C52.2673 149.343 52.8166 149.362 53.7417 149.386C53.785 149.386 53.8043 149.362 53.8284 149.323C54.1849 147.931 54.4836 146.914 54.7149 146.302C54.7342 146.216 54.8016 146.177 54.8643 146.177C54.8884 146.177 55.1823 146.177 55.7508 146.153C56.3242 146.134 56.7867 146.134 57.1625 146.134C57.5431 146.134 58.0298 146.134 58.6417 146.153C59.2536 146.177 59.5716 146.177 59.5908 146.177C59.6776 146.177 59.7402 146.221 59.7595 146.302C60.2509 147.979 60.54 148.967 60.6075 149.242Z" fill="#1A1A18"/>
<path d="M69.1062 149.54C69.1062 149.309 69.1688 149.241 69.3182 149.309C69.7614 149.54 70.4167 149.665 71.2647 149.665C72.5704 149.69 73.693 149.241 74.6422 148.336C75.7359 147.28 76.2852 145.782 76.2852 143.86C76.2852 142.405 75.8227 141.157 74.8928 140.145C74.199 139.384 73.3076 139.003 72.2283 139.003C71.0093 139.003 69.9493 139.465 69.0628 140.419C69.0194 140.487 68.9761 140.525 68.9134 140.525C68.8701 140.525 68.8508 140.482 68.8508 140.419C68.8315 140 68.7689 139.639 68.6581 139.321C68.6147 139.196 68.5762 139.133 68.5135 139.133C67.0536 139.302 66.1478 139.388 65.7913 139.408C65.6853 139.408 65.6227 139.47 65.6467 139.576C65.8973 140.911 66.0226 142.284 66.0226 143.652V145.238C66.0226 147.473 66.0226 149.4 66.0033 151.005C65.9792 152.142 65.9599 153.072 65.9406 153.795C65.9166 154.426 65.9166 154.681 65.9166 154.551C65.9166 154.638 65.9599 154.676 66.0226 154.676C66.0033 154.676 66.2346 154.657 66.6778 154.638C67.1259 154.618 67.4391 154.618 67.5885 154.618C67.733 154.618 68.0269 154.618 68.4316 154.638C68.8508 154.657 69.0628 154.676 69.0869 154.676C69.1495 154.676 69.1929 154.638 69.1929 154.551C69.1929 154.57 69.1929 154.358 69.1688 153.958C69.1495 153.472 69.1495 152.947 69.1254 152.354C69.1062 151.501 69.1062 150.571 69.1062 149.54ZM69.0628 143.098C69.0435 142.949 69.1447 142.78 69.4001 142.568C70.0746 141.788 70.7299 141.407 71.3611 141.407C72.503 141.407 73.0715 142.356 73.0715 144.235C73.0715 145.291 72.8788 146.028 72.4789 146.452C71.9682 146.958 71.4237 147.213 70.8311 147.213C70.3011 147.213 69.4145 146.914 69.1592 146.601C69.0965 146.538 69.0532 146.432 69.0532 146.283V143.098H69.0628Z" fill="#1A1A18"/>
<path d="M82.6791 149.69C84.4522 149.69 85.8446 149.141 86.8564 148.042C87.7863 147.05 88.2489 145.782 88.2489 144.241C88.2489 142.569 87.743 141.263 86.7504 140.314C85.8398 139.447 84.6353 139.027 83.1561 139.027C81.5324 139.027 80.1833 139.514 79.1474 140.487C78.073 141.499 77.543 142.81 77.543 144.433C77.543 146.057 78.0103 147.329 78.9595 148.278C79.9087 149.223 81.1373 149.69 82.6791 149.69ZM82.867 141.388C83.6042 141.388 84.1968 141.706 84.5967 142.337C84.9533 142.911 85.146 143.648 85.146 144.554C85.146 145.421 84.9147 146.096 84.4474 146.626C84.0282 147.069 83.5415 147.3 82.973 147.3C82.3177 147.3 81.7926 147.045 81.3686 146.539C80.8819 145.97 80.6507 145.209 80.6507 144.255C80.6507 142.549 81.4312 141.388 82.867 141.388Z" fill="#1A1A18"/>
<path d="M90.6288 141.764C90.6047 143.643 90.5854 145.122 90.5854 146.158C90.5854 147.363 90.9227 148.293 91.5972 148.904C92.1899 149.43 92.9704 149.709 93.9437 149.709C94.5941 149.709 95.312 149.603 96.054 149.391C96.1985 149.348 96.2612 149.285 96.2467 149.198C96.054 148.331 95.9046 147.57 95.842 146.919C95.842 146.813 95.8034 146.77 95.7167 146.794C95.0422 146.939 94.6616 147.025 94.5556 147.025C93.9436 147.025 93.6497 146.664 93.6497 145.97L93.669 141.769C93.669 141.706 93.7124 141.663 93.7991 141.663L95.9094 141.706C95.9721 141.706 96.0154 141.687 96.0154 141.663C96.0154 141.619 96.0154 141.451 95.9962 141.181C95.9721 140.882 95.9721 140.67 95.9721 140.526C95.9721 140.376 95.9962 140.02 96.0154 139.427C96.0154 139.36 95.9721 139.321 95.8709 139.321L93.9051 139.36C93.7991 139.36 93.7557 139.321 93.7557 139.215V139.003C93.7557 138.685 93.775 138.054 93.7991 137.124C93.8425 136.17 93.8617 135.727 93.8617 135.751C93.8617 135.645 93.8184 135.606 93.7557 135.606C93.5871 135.606 93.0812 135.693 92.2139 135.881C91.496 136.006 90.9901 136.093 90.6914 136.136C90.5854 136.156 90.5469 136.199 90.5469 136.262C90.5469 136.242 90.571 136.623 90.5902 137.404C90.6095 138.184 90.6336 138.714 90.6336 139.027V139.239C90.6336 139.326 90.5902 139.365 90.5083 139.365L89.2171 139.326C89.1352 139.326 89.0918 139.345 89.0918 139.413C89.0918 139.432 89.0918 139.577 89.1111 139.856C89.1303 140.131 89.1303 140.343 89.1303 140.468C89.1303 140.598 89.1303 140.81 89.1111 141.123C89.0918 141.417 89.0918 141.566 89.0918 141.591C89.0918 141.653 89.1352 141.697 89.1978 141.697L90.5083 141.653C90.5661 141.682 90.6047 141.725 90.6288 141.764Z" fill="#1A1A18"/>
<path d="M98.4105 144.154C98.4105 145.103 98.3912 146.226 98.3671 147.556C98.3479 148.885 98.3479 149.459 98.3479 149.309C98.3479 149.367 98.3671 149.391 98.4346 149.391C98.5165 149.391 98.7719 149.391 99.1718 149.367C99.5717 149.348 99.8463 149.329 99.9523 149.329C100.058 149.329 100.309 149.348 100.714 149.367C101.118 149.391 101.369 149.391 101.431 149.391C101.494 149.391 101.513 149.367 101.513 149.309C101.513 149.497 101.494 149.054 101.47 147.98C101.451 146.9 101.451 145.826 101.451 144.747V143.479C101.451 143.118 101.513 142.863 101.619 142.737C102.357 141.914 103.074 141.494 103.773 141.494C104.404 141.494 104.722 142 104.722 143.012V144.684C104.722 145.696 104.722 146.606 104.703 147.387C104.703 148.485 104.66 149.348 104.66 149.29C104.66 149.353 104.703 149.396 104.766 149.396C104.848 149.396 105.103 149.396 105.522 149.372C105.965 149.353 106.221 149.353 106.327 149.353C106.433 149.353 106.664 149.353 107.045 149.372C107.444 149.396 107.681 149.396 107.743 149.396C107.806 149.396 107.849 149.353 107.849 149.29C107.849 149.333 107.849 149.16 107.825 148.803C107.806 148.379 107.806 147.898 107.787 147.324C107.762 146.52 107.762 145.614 107.762 144.621V142.232C107.762 141.114 107.444 140.29 106.794 139.716C106.264 139.249 105.57 139.023 104.722 139.023C103.686 139.023 102.65 139.403 101.643 140.16C101.581 140.227 101.513 140.266 101.499 140.266C101.456 140.266 101.436 140.227 101.436 140.16C101.436 138.999 101.436 137.881 101.456 136.758C101.475 135.978 101.499 135.236 101.518 134.498C101.542 133.886 101.542 133.588 101.542 133.631C101.542 133.544 101.499 133.506 101.436 133.506C100.569 133.53 100.044 133.549 99.8511 133.549C99.7451 133.549 99.4946 133.549 99.0706 133.53C98.6707 133.506 98.4394 133.506 98.4153 133.506C98.3334 133.506 98.29 133.549 98.29 133.612C98.29 133.593 98.3141 134.017 98.3334 134.898C98.3527 135.934 98.3527 136.907 98.3768 137.852C98.396 139.206 98.4201 140.449 98.4201 141.615V144.154H98.4105Z" fill="#1A1A18"/>
<path d="M112.783 145.146C112.783 145.06 112.845 145.021 112.971 145.021H119.538C119.832 145.021 119.981 144.939 119.981 144.746C119.981 143.075 119.514 141.706 118.584 140.627C117.654 139.552 116.474 139.022 115.018 139.022C113.732 139.022 112.633 139.384 111.723 140.121C110.393 141.181 109.738 142.569 109.738 144.303C109.738 147.705 111.742 149.69 114.869 149.69C116.767 149.69 118.329 149.203 119.538 148.211C119.644 148.143 119.644 148.042 119.538 147.893C119.307 147.575 118.989 147.006 118.565 146.182C118.521 146.1 118.439 146.1 118.309 146.182C117.148 146.919 116.136 147.3 115.25 147.3C114.532 147.3 113.963 147.088 113.52 146.688C113.033 146.221 112.783 145.715 112.783 145.146ZM116.772 143.012C116.772 143.099 116.734 143.137 116.628 143.137H112.932C112.85 143.137 112.807 143.099 112.807 143.012C112.807 142.737 112.956 142.4 113.269 142C113.674 141.451 114.199 141.176 114.811 141.176C115.423 141.176 115.929 141.446 116.334 142.019C116.623 142.424 116.772 142.757 116.772 143.012Z" fill="#1A1A18"/>
<path d="M124.992 144.766C124.992 144.684 125.016 144.641 125.036 144.621C125.055 144.602 125.079 144.641 125.142 144.708L125.648 145.426C126.154 146.144 126.977 147.411 128.095 149.208C128.158 149.314 128.245 149.377 128.307 149.377C128.327 149.377 128.558 149.377 129.006 149.358C129.449 149.338 129.743 149.319 129.892 149.319C130.037 149.319 130.422 149.338 130.991 149.358C131.584 149.377 131.897 149.377 131.94 149.377C132.109 149.377 132.147 149.319 132.046 149.208C131.227 148.259 130.167 146.886 128.856 145.113L127.907 143.826C127.825 143.72 127.825 143.614 127.931 143.508C129.343 141.88 130.504 140.55 131.415 139.495C131.497 139.389 131.458 139.346 131.29 139.346C131.227 139.346 130.909 139.365 130.34 139.389C129.791 139.408 129.435 139.408 129.261 139.408C129.155 139.408 128.905 139.408 128.481 139.389C128.076 139.365 127.825 139.346 127.763 139.346C127.657 139.346 127.575 139.389 127.507 139.495C126.684 140.656 126.028 141.543 125.561 142.154L125.118 142.728C125.031 142.834 124.988 142.815 124.988 142.641V141.711C124.988 140.271 125.012 138.859 125.031 137.486C125.05 136.512 125.05 135.583 125.074 134.696C125.098 133.935 125.118 133.578 125.118 133.641C125.118 133.554 125.074 133.511 125.012 133.511C124.168 133.535 123.663 133.554 123.47 133.554C123.364 133.554 123.113 133.554 122.665 133.535C122.222 133.511 121.991 133.511 121.967 133.511C121.885 133.511 121.841 133.554 121.841 133.617C121.841 133.597 121.841 134.021 121.861 134.903C121.88 135.939 121.904 136.912 121.923 137.857C121.942 139.211 121.942 140.454 121.942 141.62V142.656C121.942 143.99 121.942 145.233 121.923 146.37C121.899 147.175 121.88 147.893 121.861 148.548C121.841 149.097 121.841 149.353 121.841 149.29C121.841 149.353 121.861 149.396 121.928 149.396C121.947 149.396 122.183 149.396 122.627 149.372C123.089 149.353 123.388 149.353 123.494 149.353C123.6 149.353 123.875 149.353 124.318 149.372C124.761 149.396 124.973 149.396 124.992 149.396C125.055 149.396 125.098 149.353 125.098 149.29C125.098 149.396 125.074 148.991 125.055 148.129C125.036 147.132 125.016 146.014 124.992 144.766Z" fill="#1A1A18"/>
<path d="M135.12 145.146C135.12 145.06 135.182 145.021 135.308 145.021H141.875C142.169 145.021 142.318 144.939 142.318 144.746C142.318 143.075 141.856 141.706 140.921 140.627C139.991 139.552 138.811 139.022 137.355 139.022C136.069 139.022 134.97 139.384 134.065 140.121C132.735 141.181 132.08 142.569 132.08 144.303C132.08 147.705 134.084 149.69 137.211 149.69C139.109 149.69 140.67 149.203 141.875 148.211C141.981 148.143 141.981 148.042 141.875 147.893C141.644 147.575 141.326 147.006 140.902 146.182C140.858 146.1 140.776 146.1 140.646 146.182C139.485 146.919 138.473 147.3 137.587 147.3C136.869 147.3 136.3 147.088 135.857 146.688C135.37 146.221 135.12 145.715 135.12 145.146ZM139.109 143.012C139.109 143.099 139.066 143.137 138.96 143.137H135.264C135.182 143.137 135.139 143.099 135.139 143.012C135.139 142.737 135.284 142.4 135.602 142C136.006 141.451 136.532 141.176 137.148 141.176C137.76 141.176 138.266 141.446 138.671 142.019C138.96 142.424 139.109 142.757 139.109 143.012Z" fill="#1A1A18"/>
<path d="M59.0654 124.901C59.022 124.987 58.9835 125.045 58.9594 125.093C58.3475 125.474 57.5862 125.667 56.6756 125.667C55.5144 125.667 54.5652 125.262 53.8666 124.438C53.086 123.528 52.6861 122.241 52.6861 120.531C52.6861 119.008 53.0427 117.828 53.7847 116.96C54.4592 116.18 55.3458 115.78 56.4636 115.78C57.962 115.78 59.2292 116.223 60.2651 117.091C60.3085 117.134 60.347 117.134 60.3711 117.071C60.771 116.055 61.2143 115.192 61.6816 114.494C61.725 114.431 61.7057 114.388 61.6431 114.344C60.4386 113.54 58.7907 113.14 56.6611 113.14C54.5508 113.14 52.797 113.771 51.4238 115.019C49.9253 116.392 49.1641 118.314 49.1641 120.743C49.1641 123.065 49.8386 124.925 51.2118 126.317C52.5223 127.647 54.1894 128.322 56.2371 128.322C57.4609 128.322 58.4968 128.196 59.3641 127.922C60.1446 127.69 61.0553 127.223 62.0864 126.573C62.1297 126.529 62.149 126.486 62.149 126.447C62.149 126.486 62.149 126.067 62.1297 125.156C62.1056 124.25 62.1056 123.484 62.1056 122.877C62.1056 122.453 62.1056 121.86 62.1297 121.08C62.149 120.299 62.149 119.856 62.149 119.793C62.149 119.688 62.1056 119.625 61.9996 119.625C62.0623 119.625 61.7443 119.625 61.0071 119.644C60.2699 119.663 59.6773 119.663 59.234 119.663C58.7907 119.663 58.2656 119.663 57.6488 119.644C57.0369 119.625 56.7382 119.625 56.8008 119.625C56.6997 119.625 56.6563 119.668 56.6563 119.75C56.6563 119.731 56.6563 119.895 56.6756 120.217C56.6997 120.535 56.6997 120.747 56.6997 120.892C56.6997 121.041 56.6997 121.292 56.6756 121.697C56.6563 122.097 56.6563 122.289 56.6563 122.265C56.6563 122.328 56.6756 122.347 56.7382 122.347C56.7189 122.347 56.8876 122.347 57.2441 122.328H58.1933C58.9353 122.328 59.0606 122.284 59.0606 122.54C59.0847 123.234 59.0847 123.614 59.0847 123.658C59.0895 124.139 59.0895 124.539 59.0654 124.901Z" fill="#1A1A18"/>
<path d="M71.0917 126.818C71.1544 126.756 71.217 126.712 71.2363 126.712C71.2604 126.712 71.2797 126.756 71.2989 126.818C71.4049 127.387 71.4868 127.767 71.5543 127.979C71.5784 128.129 71.641 128.191 71.7036 128.167C72.5275 128.023 73.4382 127.917 74.3874 127.898C74.4934 127.898 74.5367 127.873 74.5367 127.811C74.5367 127.955 74.4693 127.536 74.344 126.587C74.2187 125.614 74.1561 124.433 74.1561 123.036V122.154C74.1561 121.2 74.1561 120.227 74.1754 119.239C74.1994 118.247 74.2187 117.842 74.2187 117.992C74.2187 117.924 74.1994 117.905 74.1368 117.905C74.0501 117.905 73.7947 117.905 73.3996 117.924C72.9949 117.948 72.7251 117.948 72.6143 117.948C72.5083 117.948 72.2577 117.948 71.853 117.924C71.4531 117.905 71.1977 117.905 71.1351 117.905C71.0725 117.905 71.0532 117.924 71.0532 117.992C71.0532 117.799 71.0532 118.247 71.0773 119.302C71.0966 120.357 71.1207 121.412 71.1207 122.492V124.014C71.1207 124.159 71.0773 124.308 70.9954 124.414C70.2582 125.344 69.521 125.807 68.779 125.807C68.143 125.807 67.8299 125.257 67.8299 124.139V122.617C67.8299 121.605 67.8299 120.694 67.8491 119.914C67.8491 119.365 67.8491 118.902 67.8732 118.502C67.8925 118.141 67.8925 117.996 67.8925 118.016C67.8925 117.953 67.8732 117.91 67.8058 117.91C67.719 117.91 67.5119 117.91 67.1505 117.929C66.8132 117.953 66.6012 117.953 66.4952 117.953C66.3892 117.953 66.1146 117.953 65.628 117.929C65.1606 117.91 64.8908 117.91 64.8282 117.91C64.7655 117.91 64.7222 117.953 64.7222 118.016C64.7222 117.972 64.7222 118.141 64.7414 118.502C64.7655 118.926 64.7655 119.408 64.7655 119.981C64.7848 120.786 64.7848 121.692 64.7848 122.684V124.775C64.7848 125.975 65.1221 126.886 65.7966 127.503C66.3459 128.028 67.0638 128.283 67.931 128.283C69.1308 128.278 70.1859 127.792 71.0917 126.818Z" fill="#1A1A18"/>
<path d="M77.4369 120.357C77.4129 122.241 77.3936 123.715 77.3936 124.751C77.3936 125.956 77.7309 126.886 78.4054 127.498C78.998 128.023 79.7786 128.302 80.7518 128.302C81.4071 128.302 82.125 128.196 82.8622 127.984C83.0115 127.946 83.0742 127.878 83.0549 127.796C82.8622 126.929 82.7176 126.173 82.655 125.517C82.655 125.411 82.6116 125.368 82.5249 125.387C81.8552 125.537 81.4745 125.619 81.3685 125.619C80.7566 125.619 80.4627 125.262 80.4627 124.563L80.482 120.357C80.482 120.295 80.5254 120.251 80.6073 120.251L82.7176 120.295C82.7851 120.295 82.8236 120.275 82.8236 120.251C82.8236 120.208 82.8236 120.039 82.7995 119.765C82.7803 119.471 82.7803 119.259 82.7803 119.109C82.7803 118.965 82.7995 118.603 82.8236 118.011C82.8236 117.948 82.7803 117.905 82.6743 117.905L80.7133 117.948C80.6073 117.948 80.5639 117.905 80.5639 117.799V117.587C80.5639 117.269 80.588 116.638 80.6073 115.708C80.6506 114.758 80.6699 114.31 80.6699 114.334C80.6699 114.228 80.6314 114.19 80.5639 114.19C80.4001 114.19 79.8894 114.277 79.0269 114.465C78.309 114.59 77.8031 114.677 77.5092 114.715C77.4032 114.739 77.3599 114.778 77.3599 114.84C77.3599 114.821 77.3791 115.197 77.4032 115.982C77.4225 116.763 77.4466 117.293 77.4466 117.606V117.818C77.4466 117.905 77.4032 117.943 77.3165 117.943L76.0301 117.9C75.9481 117.9 75.9048 117.919 75.9048 117.987C75.9048 118.006 75.9048 118.155 75.9241 118.43C75.9481 118.7 75.9481 118.912 75.9481 119.042C75.9481 119.167 75.9481 119.384 75.9241 119.697C75.9048 119.991 75.9048 120.14 75.9048 120.164C75.9048 120.227 75.9481 120.27 76.0108 120.27L77.3165 120.227C77.3743 120.275 77.4129 120.314 77.4369 120.357Z" fill="#1A1A18"/>
<path d="M87.2415 123.735C87.2415 123.653 87.3041 123.609 87.4342 123.609H94.0013C94.2952 123.609 94.4446 123.523 94.4446 123.335C94.4446 121.668 93.9772 120.295 93.0522 119.215C92.1223 118.141 90.9418 117.611 89.4867 117.611C88.2003 117.611 87.0969 117.972 86.1911 118.709C84.8613 119.765 84.2061 121.162 84.2061 122.892C84.2061 126.293 86.2152 128.278 89.3374 128.278C91.2357 128.278 92.8016 127.792 94.0013 126.799C94.1073 126.732 94.1073 126.63 94.0013 126.481C93.7701 126.168 93.4521 125.594 93.0281 124.771C92.9847 124.684 92.898 124.684 92.7727 124.771C91.6115 125.508 90.5997 125.888 89.7132 125.888C88.9953 125.888 88.4219 125.676 87.9787 125.277C87.4968 124.814 87.2415 124.308 87.2415 123.735ZM91.2309 121.605C91.2309 121.692 91.1875 121.73 91.0815 121.73H87.3908C87.3041 121.73 87.2656 121.692 87.2656 121.605C87.2656 121.33 87.4149 120.993 87.7281 120.593C88.1328 120.044 88.658 119.769 89.2699 119.769C89.8818 119.769 90.3877 120.044 90.7876 120.613C91.0815 121.012 91.2309 121.35 91.2309 121.605Z" fill="#1A1A18"/>
<path d="M99.4366 119.071C99.3691 119.133 99.3065 119.177 99.2872 119.177C99.2439 119.177 99.2198 119.133 99.2198 119.071C99.1571 118.608 99.0945 118.228 99.0319 117.91C99.0078 117.76 98.9452 117.698 98.8825 117.717C98.0634 117.866 97.1528 117.972 96.2036 117.991C96.0976 117.991 96.0591 118.011 96.0591 118.073C96.0591 117.924 96.1217 118.348 96.247 119.321C96.3723 120.275 96.4397 121.456 96.4397 122.848V123.735C96.4397 124.684 96.4156 125.657 96.3964 126.65C96.3771 127.642 96.3771 128.047 96.3771 127.898C96.3771 127.955 96.3964 127.979 96.459 127.979C96.5409 127.979 96.7963 127.979 97.1962 127.955C97.5961 127.936 97.8707 127.936 97.9767 127.936C98.0827 127.936 98.3381 127.936 98.738 127.955C99.1331 127.979 99.3884 127.979 99.4559 127.979C99.5185 127.979 99.5426 127.955 99.5426 127.898C99.5426 128.085 99.5185 127.642 99.4992 126.587C99.4751 125.527 99.4751 124.477 99.4751 123.397V121.832C99.4751 121.687 99.5185 121.538 99.6052 121.432C100.342 120.502 101.041 120.039 101.716 120.039C102.414 120.039 102.771 120.608 102.771 121.73V123.272C102.771 124.284 102.771 125.195 102.751 125.975C102.751 127.074 102.708 127.941 102.708 127.878C102.708 127.946 102.727 127.984 102.795 127.984C102.882 127.984 103.089 127.984 103.431 127.96C103.787 127.941 103.999 127.941 104.105 127.941C104.211 127.941 104.486 127.941 104.949 127.96C105.435 127.984 105.71 127.984 105.772 127.984C105.84 127.984 105.878 127.946 105.878 127.878C105.878 127.922 105.878 127.753 105.854 127.392C105.835 126.972 105.835 126.481 105.835 125.912C105.816 125.108 105.816 124.202 105.816 123.21V120.887C105.816 119.745 105.474 118.878 104.818 118.309C104.25 117.842 103.532 117.611 102.665 117.611C101.422 117.611 100.342 118.097 99.4366 119.071Z" fill="#1A1A18"/>
<path d="M115.804 116.175C115.929 116.175 115.992 116.218 115.992 116.324V120.525C115.992 121.879 115.992 123.166 115.972 124.39C115.948 125.214 115.929 126.037 115.905 126.837C115.886 127.493 115.886 127.83 115.886 127.849C115.886 127.936 115.929 127.974 116.011 127.974C116.03 127.974 116.286 127.974 116.729 127.955C117.172 127.936 117.466 127.936 117.615 127.936C117.76 127.936 118.059 127.936 118.521 127.955C118.989 127.974 119.239 127.974 119.258 127.974C119.34 127.974 119.384 127.936 119.384 127.83C119.384 127.849 119.384 127.555 119.364 126.924C119.345 126.206 119.321 125.426 119.302 124.578C119.283 123.354 119.282 122.024 119.282 120.588V116.454C119.282 116.261 119.345 116.175 119.495 116.175C119.894 116.155 120.4 116.155 121.056 116.155C121.243 116.155 121.667 116.175 122.366 116.199C123.06 116.218 123.465 116.218 123.547 116.218C123.609 116.218 123.653 116.199 123.653 116.155C123.653 116.175 123.653 116.011 123.633 115.674C123.614 115.312 123.614 115.062 123.614 114.893C123.614 114.724 123.614 114.469 123.633 114.132C123.653 113.795 123.653 113.602 123.653 113.583C123.653 113.52 123.609 113.477 123.527 113.477C123.59 113.477 123.359 113.477 122.872 113.496C122.323 113.515 121.692 113.515 120.993 113.515C120 113.534 118.883 113.534 117.678 113.534C116.493 113.534 115.394 113.534 114.407 113.515C113.689 113.515 113.033 113.515 112.465 113.496C111.983 113.477 111.747 113.477 111.79 113.477C111.708 113.477 111.665 113.52 111.665 113.583C111.665 113.607 111.665 113.795 111.684 114.113C111.704 114.431 111.704 114.686 111.704 114.85C111.704 115.018 111.704 115.293 111.684 115.654C111.665 116.016 111.665 116.184 111.665 116.16C111.665 116.204 111.708 116.223 111.771 116.223C111.858 116.223 112.277 116.223 113.014 116.204C113.775 116.18 114.238 116.16 114.431 116.16C115.423 116.155 115.886 116.155 115.804 116.175Z" fill="#1A1A18"/>
<path d="M128.143 124.771C128.143 124.939 128.013 125.127 127.782 125.339C127.276 125.782 126.751 125.994 126.201 125.994C125.421 125.994 125.016 125.614 125.016 124.833C125.016 124.265 125.373 123.86 126.115 123.672C127.3 123.354 127.95 123.19 128.056 123.147C128.119 123.128 128.143 123.171 128.143 123.316V124.771ZM131.034 121.311C131.034 119.981 130.571 119.008 129.622 118.372C128.885 117.866 127.931 117.611 126.751 117.611C125.19 117.611 123.754 118.097 122.424 119.047C122.337 119.129 122.337 119.196 122.4 119.259C122.675 119.533 123.055 120.083 123.518 120.906C123.58 121.012 123.643 120.993 123.749 120.863C124.698 120.208 125.652 119.89 126.558 119.89C127.613 119.89 128.143 120.251 128.143 120.988C128.143 121.094 127.888 121.22 127.363 121.369C126.433 121.581 125.715 121.726 125.209 121.812C124.028 122.087 123.185 122.511 122.655 123.104C122.212 123.59 122 124.221 122 125.002C122 126.944 123.436 128.278 125.565 128.278C126.707 128.278 127.613 127.96 128.268 127.305L128.625 126.944C128.644 126.944 128.692 127.025 128.794 127.218C129.15 127.893 129.829 128.23 130.798 128.23C131.41 128.23 131.829 128.163 132.084 128.042C132.147 127.999 132.166 127.917 132.147 127.787C132.084 127.512 131.978 126.9 131.853 125.946C131.829 125.802 131.79 125.715 131.684 125.739C131.559 125.758 131.472 125.782 131.415 125.782C131.159 125.782 131.034 125.508 131.034 124.978V121.311Z" fill="#1A1A18"/>
<path d="M138.122 119.745C138.603 119.745 139.027 119.871 139.345 120.145C139.707 120.463 139.895 120.887 139.895 121.432C139.895 122.386 139.22 123.142 138.146 123.142C137.51 123.142 137.047 122.935 136.729 122.487C136.498 122.169 136.392 121.788 136.392 121.364C136.392 120.444 137.11 119.745 138.122 119.745ZM137.086 128.847C137.235 128.847 137.866 128.89 138.965 128.996C139.514 129.059 139.957 129.141 140.27 129.252C140.694 129.401 140.906 129.671 140.906 130.075C140.906 130.432 140.738 130.707 140.42 130.899C139.933 131.193 139.239 131.343 138.329 131.343C136.662 131.343 135.838 130.919 135.838 130.056C135.838 129.55 136.175 129.146 136.83 128.852C136.898 128.828 136.98 128.828 137.086 128.847ZM142.535 120.314C142.429 120.039 142.472 119.996 143.378 119.996C143.566 119.996 143.672 119.89 143.672 119.702C143.672 119.259 143.653 118.671 143.585 117.929C143.566 117.741 143.393 117.635 143.079 117.635C142.26 117.635 141.581 117.847 141.032 118.247C140.969 118.29 140.863 118.266 140.757 118.204C140.145 117.804 139.34 117.616 138.329 117.616C137.124 117.616 136.069 117.91 135.202 118.502C134.127 119.244 133.578 120.232 133.578 121.48C133.578 122.79 134.045 123.759 134.99 124.371C135.115 124.433 135.115 124.501 134.966 124.563C134.016 125.007 133.53 125.599 133.53 126.337C133.53 127.035 133.891 127.584 134.628 127.984C134.773 128.047 134.754 128.114 134.585 128.134C133.38 128.64 132.769 129.382 132.769 130.374C132.769 131.217 133.149 131.935 133.891 132.509C134.797 133.226 136.151 133.583 137.943 133.583C141.721 133.583 143.918 132.253 143.918 129.888C143.918 128.114 142.588 126.973 140.415 126.785C139.297 126.674 138.411 126.616 137.755 126.549C136.931 126.462 136.507 126.231 136.507 125.831C136.507 125.643 136.613 125.493 136.801 125.344C136.869 125.281 136.989 125.262 137.143 125.262H137.481C137.673 125.286 137.842 125.286 137.967 125.286C139.528 125.286 140.69 124.925 141.451 124.226C142.294 123.446 142.713 122.477 142.713 121.273C142.723 120.931 142.66 120.613 142.535 120.314Z" fill="#1A1A18"/>
<path d="M150.234 116.141C150.677 116.141 151.068 116.098 151.068 115.577C151.068 115.144 150.644 115.091 150.282 115.091H149.574V116.141H150.234ZM149.574 118.179H148.986V114.585H150.345C151.212 114.585 151.656 114.888 151.656 115.616C151.656 116.271 151.26 116.536 150.721 116.599L151.728 118.179H151.058L150.128 116.642H149.569V118.179H149.574ZM150.215 113.636C148.813 113.636 147.714 114.739 147.714 116.319C147.714 117.794 148.668 119.003 150.215 119.003C151.603 119.003 152.696 117.909 152.696 116.319C152.696 114.739 151.603 113.636 150.215 113.636ZM150.215 119.567C148.35 119.567 147.021 118.169 147.021 116.324C147.021 114.373 148.495 113.077 150.215 113.077C151.916 113.077 153.395 114.368 153.395 116.324C153.395 118.275 151.921 119.567 150.215 119.567Z" fill="#1A1A18"/>
</svg>
